<svg width="128" height="128" viewBox="0 0 128 128" fill="none" xmlns="http://www.w3.org/2000/svg">
<rect width="128" height="128" rx="24" fill="#1E293B"/>
<path d="M19.8935 32.7388C22.8746 28.5033 25.8522 24.2606 28.8226 20.0179C46.6702 20.0214 64.5178 20.0179 82.3654 20.0214C79.3914 24.257 76.4031 28.4818 73.4541 32.7352C67.499 32.7316 61.5403 32.7459 55.5851 32.7281C43.7212 49.6774 31.8323 66.6124 19.9149 83.526C16.9373 79.2904 13.9348 75.0692 11 70.8051C19.0305 59.3387 27.0825 47.8867 35.1344 36.4346C35.9866 35.2408 36.7604 33.9862 37.7161 32.8675C37.5521 32.8317 37.224 32.7602 37.06 32.7245C31.3402 32.7495 25.6168 32.7245 19.8935 32.7388Z" fill="white"/>
<path d="M87.7179 20.0429C91.8616 19.9786 96.0052 20.0608 100.152 20C106.104 28.4925 112.109 36.9493 118 45.4812C109.039 58.1306 100.177 70.8551 91.2553 83.5331C79.3843 83.5403 67.5132 83.5081 55.6422 83.5474C49.6193 91.9828 43.682 100.497 37.7482 109C34.8455 104.697 31.7859 100.504 28.8262 96.2398C34.735 87.7222 40.7258 79.2654 46.6774 70.78C58.5805 70.7836 70.4872 70.8122 82.3939 70.755C88.2599 62.2982 94.1652 53.8665 100.131 45.474C97.2426 41.1813 94.1545 37.028 91.2589 32.7388C87.1331 32.7209 83.0037 32.7531 78.8779 32.7209C81.827 28.4997 84.8473 24.3178 87.7179 20.0429Z" fill="white"/>
<path d="M55.5709 58.1592C58.4985 53.8772 61.5153 49.6559 64.4822 45.399C70.4444 45.4025 76.4067 45.424 82.369 45.3918C79.3772 49.6416 76.3889 53.8951 73.422 58.1592C67.4704 58.1592 61.5189 58.1592 55.5709 58.1592Z" fill="white"/>
</svg>
